<mxfile host="app.diagrams.net" modified="2023-01-05T13:53:37.707Z" agent="5.0 (X11; Linux x86_64) AppleWebKit/537.36 (KHTML, like Gecko) Chrome/100.0.4896.60 Safari/537.36" etag="XGlvqJFecgc1pgtTsqEO" version="20.7.4" type="github">
  <diagram id="Bp8Pj_-kRJzW5Ho2kqY5" name="第 1 页">
    <mxGraphModel dx="7041" dy="4868" grid="1" gridSize="10" guides="1" tooltips="1" connect="1" arrows="1" fold="1" page="1" pageScale="1" pageWidth="827" pageHeight="1169" math="0" shadow="0">
      <root>
        <mxCell id="0" />
        <mxCell id="1" parent="0" />
        <mxCell id="iJkhMo64-NrMxBsNNjkt-70" value="CalibrationCommon bin" style="rounded=1;whiteSpace=wrap;html=1;fontSize=31;verticalAlign=top;" vertex="1" parent="1">
          <mxGeometry x="-1690" y="-1030" width="4300" height="1830" as="geometry" />
        </mxCell>
        <mxCell id="y8l9VE3VMVZeQ-2kAUSr-144" value="" style="rounded=1;whiteSpace=wrap;html=1;" parent="1" vertex="1">
          <mxGeometry x="-1150" y="230" width="2960" height="490" as="geometry" />
        </mxCell>
        <mxCell id="y8l9VE3VMVZeQ-2kAUSr-142" value="CalibrationBaseModule.so" style="rounded=1;whiteSpace=wrap;html=1;fontSize=23;verticalAlign=top;" parent="1" vertex="1">
          <mxGeometry x="-750" y="-1610" width="1290" height="480" as="geometry" />
        </mxCell>
        <mxCell id="y8l9VE3VMVZeQ-2kAUSr-106" value="CommadList" style="rounded=1;whiteSpace=wrap;html=1;verticalAlign=top;" parent="1" vertex="1">
          <mxGeometry x="680" y="-762" width="950" height="290" as="geometry" />
        </mxCell>
        <mxCell id="y8l9VE3VMVZeQ-2kAUSr-2" value="RoutineBase" style="swimlane;fontStyle=1;align=center;verticalAlign=top;childLayout=stackLayout;horizontal=1;startSize=26;horizontalStack=0;resizeParent=1;resizeParentMax=0;resizeLast=0;collapsible=1;marginBottom=0;fillColor=#dae8fc;strokeColor=#6c8ebf;" parent="1" vertex="1">
          <mxGeometry x="-460" y="-510" width="320" height="346" as="geometry" />
        </mxCell>
        <mxCell id="y8l9VE3VMVZeQ-2kAUSr-3" value="- specifier_: string" style="text;strokeColor=#82b366;fillColor=#d5e8d4;align=left;verticalAlign=top;spacingLeft=4;spacingRight=4;overflow=hidden;rotatable=0;points=[[0,0.5],[1,0.5]];portConstraint=eastwest;labelBorderColor=none;" parent="y8l9VE3VMVZeQ-2kAUSr-2" vertex="1">
          <mxGeometry y="26" width="320" height="26" as="geometry" />
        </mxCell>
        <mxCell id="y8l9VE3VMVZeQ-2kAUSr-4" value="- start_: Handler" style="text;strokeColor=#82b366;fillColor=#d5e8d4;align=left;verticalAlign=top;spacingLeft=4;spacingRight=4;overflow=hidden;rotatable=0;points=[[0,0.5],[1,0.5]];portConstraint=eastwest;labelBorderColor=none;" parent="y8l9VE3VMVZeQ-2kAUSr-2" vertex="1">
          <mxGeometry y="52" width="320" height="26" as="geometry" />
        </mxCell>
        <mxCell id="y8l9VE3VMVZeQ-2kAUSr-5" value="- stop_: Handler" style="text;strokeColor=#82b366;fillColor=#d5e8d4;align=left;verticalAlign=top;spacingLeft=4;spacingRight=4;overflow=hidden;rotatable=0;points=[[0,0.5],[1,0.5]];portConstraint=eastwest;labelBorderColor=none;" parent="y8l9VE3VMVZeQ-2kAUSr-2" vertex="1">
          <mxGeometry y="78" width="320" height="26" as="geometry" />
        </mxCell>
        <mxCell id="y8l9VE3VMVZeQ-2kAUSr-6" value="- request_result_: Handler" style="text;strokeColor=#82b366;fillColor=#d5e8d4;align=left;verticalAlign=top;spacingLeft=4;spacingRight=4;overflow=hidden;rotatable=0;points=[[0,0.5],[1,0.5]];portConstraint=eastwest;labelBorderColor=none;" parent="y8l9VE3VMVZeQ-2kAUSr-2" vertex="1">
          <mxGeometry y="104" width="320" height="26" as="geometry" />
        </mxCell>
        <mxCell id="y8l9VE3VMVZeQ-2kAUSr-7" value="" style="line;strokeWidth=1;fillColor=none;align=left;verticalAlign=middle;spacingTop=-1;spacingLeft=3;spacingRight=3;rotatable=0;labelPosition=right;points=[];portConstraint=eastwest;" parent="y8l9VE3VMVZeQ-2kAUSr-2" vertex="1">
          <mxGeometry y="130" width="320" height="8" as="geometry" />
        </mxCell>
        <mxCell id="y8l9VE3VMVZeQ-2kAUSr-8" value="+ Offer(): bool = 0" style="text;strokeColor=#d79b00;fillColor=#ffe6cc;align=left;verticalAlign=top;spacingLeft=4;spacingRight=4;overflow=hidden;rotatable=0;points=[[0,0.5],[1,0.5]];portConstraint=eastwest;labelBorderColor=none;" parent="y8l9VE3VMVZeQ-2kAUSr-2" vertex="1">
          <mxGeometry y="138" width="320" height="26" as="geometry" />
        </mxCell>
        <mxCell id="y8l9VE3VMVZeQ-2kAUSr-9" value="+ StopOffer(): void = 0" style="text;strokeColor=#d79b00;fillColor=#ffe6cc;align=left;verticalAlign=top;spacingLeft=4;spacingRight=4;overflow=hidden;rotatable=0;points=[[0,0.5],[1,0.5]];portConstraint=eastwest;" parent="y8l9VE3VMVZeQ-2kAUSr-2" vertex="1">
          <mxGeometry y="164" width="320" height="26" as="geometry" />
        </mxCell>
        <mxCell id="y8l9VE3VMVZeQ-2kAUSr-10" value="+ Start(routineId:uint16_t, requestData:OperationInput): std::future&lt;OperationOutput&gt; = 0" style="text;strokeColor=#d79b00;fillColor=#ffe6cc;align=left;verticalAlign=top;spacingLeft=4;spacingRight=4;overflow=hidden;rotatable=0;points=[[0,0.5],[1,0.5]];portConstraint=eastwest;" parent="y8l9VE3VMVZeQ-2kAUSr-2" vertex="1">
          <mxGeometry y="190" width="320" height="26" as="geometry" />
        </mxCell>
        <mxCell id="y8l9VE3VMVZeQ-2kAUSr-11" value="+ Stop(routineId:uint16_t, requestData:OperationInput): std::future&lt;OperationOutput&gt; = 0" style="text;strokeColor=#d79b00;fillColor=#ffe6cc;align=left;verticalAlign=top;spacingLeft=4;spacingRight=4;overflow=hidden;rotatable=0;points=[[0,0.5],[1,0.5]];portConstraint=eastwest;" parent="y8l9VE3VMVZeQ-2kAUSr-2" vertex="1">
          <mxGeometry y="216" width="320" height="26" as="geometry" />
        </mxCell>
        <mxCell id="y8l9VE3VMVZeQ-2kAUSr-12" value="+ RequestResult(routineId:uint16_t, requestData:OperationInput): std::future&lt;OperationOutput&gt; = 0" style="text;strokeColor=#d79b00;fillColor=#ffe6cc;align=left;verticalAlign=top;spacingLeft=4;spacingRight=4;overflow=hidden;rotatable=0;points=[[0,0.5],[1,0.5]];portConstraint=eastwest;" parent="y8l9VE3VMVZeQ-2kAUSr-2" vertex="1">
          <mxGeometry y="242" width="320" height="26" as="geometry" />
        </mxCell>
        <mxCell id="y8l9VE3VMVZeQ-2kAUSr-13" value="+ SetStartHandler(handler：Handler): void" style="text;strokeColor=#d79b00;fillColor=#ffe6cc;align=left;verticalAlign=top;spacingLeft=4;spacingRight=4;overflow=hidden;rotatable=0;points=[[0,0.5],[1,0.5]];portConstraint=eastwest;" parent="y8l9VE3VMVZeQ-2kAUSr-2" vertex="1">
          <mxGeometry y="268" width="320" height="26" as="geometry" />
        </mxCell>
        <mxCell id="y8l9VE3VMVZeQ-2kAUSr-14" value="+ SetStopHandler(handler：Handler): void" style="text;strokeColor=#d79b00;fillColor=#ffe6cc;align=left;verticalAlign=top;spacingLeft=4;spacingRight=4;overflow=hidden;rotatable=0;points=[[0,0.5],[1,0.5]];portConstraint=eastwest;" parent="y8l9VE3VMVZeQ-2kAUSr-2" vertex="1">
          <mxGeometry y="294" width="320" height="26" as="geometry" />
        </mxCell>
        <mxCell id="y8l9VE3VMVZeQ-2kAUSr-15" value="+ SetRequestResultHandler(handler：Handler): void" style="text;strokeColor=#d79b00;fillColor=#ffe6cc;align=left;verticalAlign=top;spacingLeft=4;spacingRight=4;overflow=hidden;rotatable=0;points=[[0,0.5],[1,0.5]];portConstraint=eastwest;" parent="y8l9VE3VMVZeQ-2kAUSr-2" vertex="1">
          <mxGeometry y="320" width="320" height="26" as="geometry" />
        </mxCell>
        <mxCell id="y8l9VE3VMVZeQ-2kAUSr-16" value="RoutineImpl" style="swimlane;fontStyle=1;align=center;verticalAlign=top;childLayout=stackLayout;horizontal=1;startSize=26;horizontalStack=0;resizeParent=1;resizeParentMax=0;resizeLast=0;collapsible=1;marginBottom=0;fillColor=#dae8fc;strokeColor=#6c8ebf;" parent="1" vertex="1">
          <mxGeometry x="-400" y="310" width="320" height="34" as="geometry" />
        </mxCell>
        <mxCell id="y8l9VE3VMVZeQ-2kAUSr-17" value="" style="line;strokeWidth=1;fillColor=none;align=left;verticalAlign=middle;spacingTop=-1;spacingLeft=3;spacingRight=3;rotatable=0;labelPosition=right;points=[];portConstraint=eastwest;" parent="y8l9VE3VMVZeQ-2kAUSr-16" vertex="1">
          <mxGeometry y="26" width="320" height="8" as="geometry" />
        </mxCell>
        <mxCell id="y8l9VE3VMVZeQ-2kAUSr-18" value="" style="endArrow=block;dashed=1;endFill=0;endSize=12;html=1;" parent="1" source="y8l9VE3VMVZeQ-2kAUSr-16" target="y8l9VE3VMVZeQ-2kAUSr-2" edge="1">
          <mxGeometry width="160" relative="1" as="geometry">
            <mxPoint x="-610" y="380" as="sourcePoint" />
            <mxPoint x="-450" y="380" as="targetPoint" />
          </mxGeometry>
        </mxCell>
        <mxCell id="y8l9VE3VMVZeQ-2kAUSr-19" value="CmManagerInterface" style="swimlane;fontStyle=1;align=center;verticalAlign=top;childLayout=stackLayout;horizontal=1;startSize=26;horizontalStack=0;resizeParent=1;resizeParentMax=0;resizeLast=0;collapsible=1;marginBottom=0;fillColor=#dae8fc;strokeColor=#6c8ebf;" parent="1" vertex="1">
          <mxGeometry y="-762" width="550" height="356" as="geometry" />
        </mxCell>
        <mxCell id="y8l9VE3VMVZeQ-2kAUSr-47" value="    using DecodeCameraArgsType = senseAD::calibration::IMAGE;&#xa;" style="text;strokeColor=#82b366;fillColor=#d5e8d4;align=left;verticalAlign=top;spacingLeft=4;spacingRight=4;overflow=hidden;rotatable=0;points=[[0,0.5],[1,0.5]];portConstraint=eastwest;labelBorderColor=none;" parent="y8l9VE3VMVZeQ-2kAUSr-19" vertex="1">
          <mxGeometry y="26" width="550" height="26" as="geometry" />
        </mxCell>
        <mxCell id="y8l9VE3VMVZeQ-2kAUSr-48" value="    using EncodeCameraArgsType = calibration_base_module::CameraEncodeFrame;&#xa;" style="text;strokeColor=#82b366;fillColor=#d5e8d4;align=left;verticalAlign=top;spacingLeft=4;spacingRight=4;overflow=hidden;rotatable=0;points=[[0,0.5],[1,0.5]];portConstraint=eastwest;labelBorderColor=none;" parent="y8l9VE3VMVZeQ-2kAUSr-19" vertex="1">
          <mxGeometry y="52" width="550" height="26" as="geometry" />
        </mxCell>
        <mxCell id="y8l9VE3VMVZeQ-2kAUSr-49" value="    using LocalVedArgsType = senseAD::calibration::VedInfo;&#xa;" style="text;strokeColor=#82b366;fillColor=#d5e8d4;align=left;verticalAlign=top;spacingLeft=4;spacingRight=4;overflow=hidden;rotatable=0;points=[[0,0.5],[1,0.5]];portConstraint=eastwest;labelBorderColor=none;" parent="y8l9VE3VMVZeQ-2kAUSr-19" vertex="1">
          <mxGeometry y="78" width="550" height="26" as="geometry" />
        </mxCell>
        <mxCell id="y8l9VE3VMVZeQ-2kAUSr-51" value="    using CameraLaneLineArgsType = senseAD::calibration::PerceptionRoad;&#xa;" style="text;strokeColor=#82b366;fillColor=#d5e8d4;align=left;verticalAlign=top;spacingLeft=4;spacingRight=4;overflow=hidden;rotatable=0;points=[[0,0.5],[1,0.5]];portConstraint=eastwest;labelBorderColor=none;" parent="y8l9VE3VMVZeQ-2kAUSr-19" vertex="1">
          <mxGeometry y="104" width="550" height="26" as="geometry" />
        </mxCell>
        <mxCell id="y8l9VE3VMVZeQ-2kAUSr-50" value="    template &lt;typename _ParameterType&gt;&#xa;    using FunCallback = std::function&lt;void(const _ParameterType&amp;)&gt;;" style="text;strokeColor=#82b366;fillColor=#d5e8d4;align=left;verticalAlign=top;spacingLeft=4;spacingRight=4;overflow=hidden;rotatable=0;points=[[0,0.5],[1,0.5]];portConstraint=eastwest;labelBorderColor=none;" parent="y8l9VE3VMVZeQ-2kAUSr-19" vertex="1">
          <mxGeometry y="130" width="550" height="36" as="geometry" />
        </mxCell>
        <mxCell id="y8l9VE3VMVZeQ-2kAUSr-24" value="" style="line;strokeWidth=1;fillColor=none;align=left;verticalAlign=middle;spacingTop=-1;spacingLeft=3;spacingRight=3;rotatable=0;labelPosition=right;points=[];portConstraint=eastwest;" parent="y8l9VE3VMVZeQ-2kAUSr-19" vertex="1">
          <mxGeometry y="166" width="550" height="8" as="geometry" />
        </mxCell>
        <mxCell id="y8l9VE3VMVZeQ-2kAUSr-25" value="+ RegisterDataCallBack(map_key:string,func : FunCallback&lt;DecodeCameraArgsType&gt;): Slot = 0" style="text;strokeColor=#d79b00;fillColor=#ffe6cc;align=left;verticalAlign=top;spacingLeft=4;spacingRight=4;overflow=hidden;rotatable=0;points=[[0,0.5],[1,0.5]];portConstraint=eastwest;labelBorderColor=none;" parent="y8l9VE3VMVZeQ-2kAUSr-19" vertex="1">
          <mxGeometry y="174" width="550" height="26" as="geometry" />
        </mxCell>
        <mxCell id="y8l9VE3VMVZeQ-2kAUSr-26" value="+ RegisterDataCallBack(map_key:string,func : FunCallback&lt;EncodeCameraArgsType&gt;): Slot = 0" style="text;strokeColor=#d79b00;fillColor=#ffe6cc;align=left;verticalAlign=top;spacingLeft=4;spacingRight=4;overflow=hidden;rotatable=0;points=[[0,0.5],[1,0.5]];portConstraint=eastwest;" parent="y8l9VE3VMVZeQ-2kAUSr-19" vertex="1">
          <mxGeometry y="200" width="550" height="26" as="geometry" />
        </mxCell>
        <mxCell id="y8l9VE3VMVZeQ-2kAUSr-27" value="+ RegisterDataCallBack(map_key:string,func : FunCallback&lt;CameraLaneLineArgsType&gt;): Slot = 0" style="text;strokeColor=#d79b00;fillColor=#ffe6cc;align=left;verticalAlign=top;spacingLeft=4;spacingRight=4;overflow=hidden;rotatable=0;points=[[0,0.5],[1,0.5]];portConstraint=eastwest;" parent="y8l9VE3VMVZeQ-2kAUSr-19" vertex="1">
          <mxGeometry y="226" width="550" height="26" as="geometry" />
        </mxCell>
        <mxCell id="y8l9VE3VMVZeQ-2kAUSr-28" value="+ RegisterDataCallBack(func : FunCallback&lt;LocalVedArgsType&gt;): Slot = 0" style="text;strokeColor=#d79b00;fillColor=#ffe6cc;align=left;verticalAlign=top;spacingLeft=4;spacingRight=4;overflow=hidden;rotatable=0;points=[[0,0.5],[1,0.5]];portConstraint=eastwest;" parent="y8l9VE3VMVZeQ-2kAUSr-19" vertex="1">
          <mxGeometry y="252" width="550" height="26" as="geometry" />
        </mxCell>
        <mxCell id="y8l9VE3VMVZeQ-2kAUSr-29" value="+ GetCameraInternalParameter(sensor_name:string, info:RawCameraIntrinsicInfo): ErrorCode = 0" style="text;strokeColor=#d79b00;fillColor=#ffe6cc;align=left;verticalAlign=top;spacingLeft=4;spacingRight=4;overflow=hidden;rotatable=0;points=[[0,0.5],[1,0.5]];portConstraint=eastwest;" parent="y8l9VE3VMVZeQ-2kAUSr-19" vertex="1">
          <mxGeometry y="278" width="550" height="26" as="geometry" />
        </mxCell>
        <mxCell id="y8l9VE3VMVZeQ-2kAUSr-53" value="+ SendOneData(topic:string, data:calibration_base_module::Abstract): ErrorCode = 0" style="text;strokeColor=#d79b00;fillColor=#ffe6cc;align=left;verticalAlign=top;spacingLeft=4;spacingRight=4;overflow=hidden;rotatable=0;points=[[0,0.5],[1,0.5]];portConstraint=eastwest;" parent="y8l9VE3VMVZeQ-2kAUSr-19" vertex="1">
          <mxGeometry y="304" width="550" height="26" as="geometry" />
        </mxCell>
        <mxCell id="y8l9VE3VMVZeQ-2kAUSr-52" value="+ GetOneData(topic:string, data:calibration_base_module::Abstract,blockTimeoutMs:uint32_t): ErrorCode = 0" style="text;strokeColor=#d79b00;fillColor=#ffe6cc;align=left;verticalAlign=top;spacingLeft=4;spacingRight=4;overflow=hidden;rotatable=0;points=[[0,0.5],[1,0.5]];portConstraint=eastwest;" parent="y8l9VE3VMVZeQ-2kAUSr-19" vertex="1">
          <mxGeometry y="330" width="550" height="26" as="geometry" />
        </mxCell>
        <mxCell id="y8l9VE3VMVZeQ-2kAUSr-33" value="CmManagerBase" style="swimlane;fontStyle=1;align=center;verticalAlign=top;childLayout=stackLayout;horizontal=1;startSize=26;horizontalStack=0;resizeParent=1;resizeParentMax=0;resizeLast=0;collapsible=1;marginBottom=0;fillColor=#dae8fc;strokeColor=#6c8ebf;" parent="1" vertex="1">
          <mxGeometry y="-320" width="550" height="242" as="geometry" />
        </mxCell>
        <mxCell id="y8l9VE3VMVZeQ-2kAUSr-54" value="- is_init_: atomic_bool" style="text;strokeColor=#82b366;fillColor=#d5e8d4;align=left;verticalAlign=top;spacingLeft=4;spacingRight=4;overflow=hidden;rotatable=0;points=[[0,0.5],[1,0.5]];portConstraint=eastwest;labelBorderColor=none;" parent="y8l9VE3VMVZeQ-2kAUSr-33" vertex="1">
          <mxGeometry y="26" width="550" height="26" as="geometry" />
        </mxCell>
        <mxCell id="y8l9VE3VMVZeQ-2kAUSr-55" value="- is_process_: atomic_bool" style="text;strokeColor=#82b366;fillColor=#d5e8d4;align=left;verticalAlign=top;spacingLeft=4;spacingRight=4;overflow=hidden;rotatable=0;points=[[0,0.5],[1,0.5]];portConstraint=eastwest;labelBorderColor=none;" parent="y8l9VE3VMVZeQ-2kAUSr-33" vertex="1">
          <mxGeometry y="52" width="550" height="26" as="geometry" />
        </mxCell>
        <mxCell id="y8l9VE3VMVZeQ-2kAUSr-34" value="- decode_camera_proxymap_: unordered_map&lt;std::string, std::unique_ptr&lt;ReceiverProxy&lt;DecodeCameraArgsType&gt;&gt;&gt;" style="text;strokeColor=#82b366;fillColor=#d5e8d4;align=left;verticalAlign=top;spacingLeft=4;spacingRight=4;overflow=hidden;rotatable=0;points=[[0,0.5],[1,0.5]];portConstraint=eastwest;labelBorderColor=none;" parent="y8l9VE3VMVZeQ-2kAUSr-33" vertex="1">
          <mxGeometry y="78" width="550" height="26" as="geometry" />
        </mxCell>
        <mxCell id="y8l9VE3VMVZeQ-2kAUSr-35" value="- encode_camera_proxymap_: unordered_map&lt;std::string, std::unique_ptr&lt;ReceiverProxy&lt;EncodeCameraArgsType&gt;&gt;&gt;" style="text;strokeColor=#82b366;fillColor=#d5e8d4;align=left;verticalAlign=top;spacingLeft=4;spacingRight=4;overflow=hidden;rotatable=0;points=[[0,0.5],[1,0.5]];portConstraint=eastwest;labelBorderColor=none;" parent="y8l9VE3VMVZeQ-2kAUSr-33" vertex="1">
          <mxGeometry y="104" width="550" height="26" as="geometry" />
        </mxCell>
        <mxCell id="y8l9VE3VMVZeQ-2kAUSr-36" value="- camera_lane_line_proxymap_: unordered_map&lt;std::string, std::unique_ptr&lt;ReceiverProxy&lt;CameraLaneLineArgsType&gt;&gt;&gt;" style="text;strokeColor=#82b366;fillColor=#d5e8d4;align=left;verticalAlign=top;spacingLeft=4;spacingRight=4;overflow=hidden;rotatable=0;points=[[0,0.5],[1,0.5]];portConstraint=eastwest;labelBorderColor=none;" parent="y8l9VE3VMVZeQ-2kAUSr-33" vertex="1">
          <mxGeometry y="130" width="550" height="26" as="geometry" />
        </mxCell>
        <mxCell id="y8l9VE3VMVZeQ-2kAUSr-37" value="- local_ved_proxy_: unordered_map&lt;std::string, std::unique_ptr&lt;ReceiverProxy&lt;LocalVedArgsType&gt;&gt;&gt;" style="text;strokeColor=#82b366;fillColor=#d5e8d4;align=left;verticalAlign=top;spacingLeft=4;spacingRight=4;overflow=hidden;rotatable=0;points=[[0,0.5],[1,0.5]];portConstraint=eastwest;labelBorderColor=none;" parent="y8l9VE3VMVZeQ-2kAUSr-33" vertex="1">
          <mxGeometry y="156" width="550" height="26" as="geometry" />
        </mxCell>
        <mxCell id="y8l9VE3VMVZeQ-2kAUSr-38" value="" style="line;strokeWidth=1;fillColor=none;align=left;verticalAlign=middle;spacingTop=-1;spacingLeft=3;spacingRight=3;rotatable=0;labelPosition=right;points=[];portConstraint=eastwest;" parent="y8l9VE3VMVZeQ-2kAUSr-33" vertex="1">
          <mxGeometry y="182" width="550" height="8" as="geometry" />
        </mxCell>
        <mxCell id="y8l9VE3VMVZeQ-2kAUSr-39" value="+ Init(config_file:string): ErrorCode = 0" style="text;strokeColor=#d79b00;fillColor=#ffe6cc;align=left;verticalAlign=top;spacingLeft=4;spacingRight=4;overflow=hidden;rotatable=0;points=[[0,0.5],[1,0.5]];portConstraint=eastwest;labelBorderColor=none;" parent="y8l9VE3VMVZeQ-2kAUSr-33" vertex="1">
          <mxGeometry y="190" width="550" height="26" as="geometry" />
        </mxCell>
        <mxCell id="y8l9VE3VMVZeQ-2kAUSr-40" value="+ Process(): ErrorCode = 0" style="text;strokeColor=#d79b00;fillColor=#ffe6cc;align=left;verticalAlign=top;spacingLeft=4;spacingRight=4;overflow=hidden;rotatable=0;points=[[0,0.5],[1,0.5]];portConstraint=eastwest;" parent="y8l9VE3VMVZeQ-2kAUSr-33" vertex="1">
          <mxGeometry y="216" width="550" height="26" as="geometry" />
        </mxCell>
        <mxCell id="y8l9VE3VMVZeQ-2kAUSr-72" value="" style="endArrow=block;dashed=1;endFill=0;endSize=12;html=1;" parent="1" source="y8l9VE3VMVZeQ-2kAUSr-33" target="y8l9VE3VMVZeQ-2kAUSr-19" edge="1">
          <mxGeometry width="160" relative="1" as="geometry">
            <mxPoint x="-289.4753086419753" y="260" as="sourcePoint" />
            <mxPoint x="-285.33950617283926" y="126" as="targetPoint" />
          </mxGeometry>
        </mxCell>
        <mxCell id="y8l9VE3VMVZeQ-2kAUSr-74" value="CommandInterface" style="swimlane;fontStyle=1;align=center;verticalAlign=top;childLayout=stackLayout;horizontal=1;startSize=26;horizontalStack=0;resizeParent=1;resizeParentMax=0;resizeLast=0;collapsible=1;marginBottom=0;fillColor=#dae8fc;strokeColor=#6c8ebf;" parent="1" vertex="1">
          <mxGeometry x="1060" y="-722" width="130" height="112" as="geometry" />
        </mxCell>
        <mxCell id="y8l9VE3VMVZeQ-2kAUSr-80" value="" style="line;strokeWidth=1;fillColor=none;align=left;verticalAlign=middle;spacingTop=-1;spacingLeft=3;spacingRight=3;rotatable=0;labelPosition=right;points=[];portConstraint=eastwest;" parent="y8l9VE3VMVZeQ-2kAUSr-74" vertex="1">
          <mxGeometry y="26" width="130" height="8" as="geometry" />
        </mxCell>
        <mxCell id="y8l9VE3VMVZeQ-2kAUSr-81" value="+ Execute(): bool = 0" style="text;strokeColor=#d79b00;fillColor=#ffe6cc;align=left;verticalAlign=top;spacingLeft=4;spacingRight=4;overflow=hidden;rotatable=0;points=[[0,0.5],[1,0.5]];portConstraint=eastwest;labelBorderColor=none;" parent="y8l9VE3VMVZeQ-2kAUSr-74" vertex="1">
          <mxGeometry y="34" width="130" height="26" as="geometry" />
        </mxCell>
        <mxCell id="y8l9VE3VMVZeQ-2kAUSr-82" value="+ Stop(): bool = 0" style="text;strokeColor=#d79b00;fillColor=#ffe6cc;align=left;verticalAlign=top;spacingLeft=4;spacingRight=4;overflow=hidden;rotatable=0;points=[[0,0.5],[1,0.5]];portConstraint=eastwest;" parent="y8l9VE3VMVZeQ-2kAUSr-74" vertex="1">
          <mxGeometry y="60" width="130" height="26" as="geometry" />
        </mxCell>
        <mxCell id="y8l9VE3VMVZeQ-2kAUSr-83" value="+ str(): string = 0" style="text;strokeColor=#d79b00;fillColor=#ffe6cc;align=left;verticalAlign=top;spacingLeft=4;spacingRight=4;overflow=hidden;rotatable=0;points=[[0,0.5],[1,0.5]];portConstraint=eastwest;" parent="y8l9VE3VMVZeQ-2kAUSr-74" vertex="1">
          <mxGeometry y="86" width="130" height="26" as="geometry" />
        </mxCell>
        <mxCell id="y8l9VE3VMVZeQ-2kAUSr-88" value="CameraInternalParameterCommand" style="swimlane;fontStyle=1;align=center;verticalAlign=top;childLayout=stackLayout;horizontal=1;startSize=26;horizontalStack=0;resizeParent=1;resizeParentMax=0;resizeLast=0;collapsible=1;marginBottom=0;fillColor=#dae8fc;strokeColor=#6c8ebf;" parent="1" vertex="1">
          <mxGeometry x="740" y="-544" width="260" height="34" as="geometry" />
        </mxCell>
        <mxCell id="y8l9VE3VMVZeQ-2kAUSr-89" value="" style="line;strokeWidth=1;fillColor=none;align=left;verticalAlign=middle;spacingTop=-1;spacingLeft=3;spacingRight=3;rotatable=0;labelPosition=right;points=[];portConstraint=eastwest;" parent="y8l9VE3VMVZeQ-2kAUSr-88" vertex="1">
          <mxGeometry y="26" width="260" height="8" as="geometry" />
        </mxCell>
        <mxCell id="y8l9VE3VMVZeQ-2kAUSr-93" value="" style="endArrow=block;dashed=1;endFill=0;endSize=12;html=1;" parent="1" source="y8l9VE3VMVZeQ-2kAUSr-88" target="y8l9VE3VMVZeQ-2kAUSr-74" edge="1">
          <mxGeometry width="160" relative="1" as="geometry">
            <mxPoint x="1120" y="-474" as="sourcePoint" />
            <mxPoint x="1120" y="-560" as="targetPoint" />
          </mxGeometry>
        </mxCell>
        <mxCell id="y8l9VE3VMVZeQ-2kAUSr-94" value="GeneralMeshTableCommand" style="swimlane;fontStyle=1;align=center;verticalAlign=top;childLayout=stackLayout;horizontal=1;startSize=26;horizontalStack=0;resizeParent=1;resizeParentMax=0;resizeLast=0;collapsible=1;marginBottom=0;fillColor=#dae8fc;strokeColor=#6c8ebf;" parent="1" vertex="1">
          <mxGeometry x="1030" y="-544" width="260" height="34" as="geometry" />
        </mxCell>
        <mxCell id="y8l9VE3VMVZeQ-2kAUSr-95" value="" style="line;strokeWidth=1;fillColor=none;align=left;verticalAlign=middle;spacingTop=-1;spacingLeft=3;spacingRight=3;rotatable=0;labelPosition=right;points=[];portConstraint=eastwest;" parent="y8l9VE3VMVZeQ-2kAUSr-94" vertex="1">
          <mxGeometry y="26" width="260" height="8" as="geometry" />
        </mxCell>
        <mxCell id="y8l9VE3VMVZeQ-2kAUSr-99" value="" style="endArrow=block;dashed=1;endFill=0;endSize=12;html=1;" parent="1" source="y8l9VE3VMVZeQ-2kAUSr-94" target="y8l9VE3VMVZeQ-2kAUSr-74" edge="1">
          <mxGeometry width="160" relative="1" as="geometry">
            <mxPoint x="906.7415730337079" y="-534" as="sourcePoint" />
            <mxPoint x="938.2584269662921" y="-599.9999999999999" as="targetPoint" />
          </mxGeometry>
        </mxCell>
        <mxCell id="y8l9VE3VMVZeQ-2kAUSr-100" value="RestartCameraCommand" style="swimlane;fontStyle=1;align=center;verticalAlign=top;childLayout=stackLayout;horizontal=1;startSize=26;horizontalStack=0;resizeParent=1;resizeParentMax=0;resizeLast=0;collapsible=1;marginBottom=0;fillColor=#dae8fc;strokeColor=#6c8ebf;" parent="1" vertex="1">
          <mxGeometry x="1320" y="-540" width="260" height="34" as="geometry" />
        </mxCell>
        <mxCell id="y8l9VE3VMVZeQ-2kAUSr-101" value="" style="line;strokeWidth=1;fillColor=none;align=left;verticalAlign=middle;spacingTop=-1;spacingLeft=3;spacingRight=3;rotatable=0;labelPosition=right;points=[];portConstraint=eastwest;" parent="y8l9VE3VMVZeQ-2kAUSr-100" vertex="1">
          <mxGeometry y="26" width="260" height="8" as="geometry" />
        </mxCell>
        <mxCell id="y8l9VE3VMVZeQ-2kAUSr-105" value="" style="endArrow=block;dashed=1;endFill=0;endSize=12;html=1;" parent="1" source="y8l9VE3VMVZeQ-2kAUSr-100" target="y8l9VE3VMVZeQ-2kAUSr-74" edge="1">
          <mxGeometry width="160" relative="1" as="geometry">
            <mxPoint x="1165.7194244604316" y="-534" as="sourcePoint" />
            <mxPoint x="1149.1007194244603" y="-599.9999999999999" as="targetPoint" />
          </mxGeometry>
        </mxCell>
        <mxCell id="y8l9VE3VMVZeQ-2kAUSr-108" value="FunctionControl" style="swimlane;fontStyle=1;align=center;verticalAlign=top;childLayout=stackLayout;horizontal=1;startSize=26;horizontalStack=0;resizeParent=1;resizeParentMax=0;resizeLast=0;collapsible=1;marginBottom=0;fillColor=#dae8fc;strokeColor=#6c8ebf;" parent="1" vertex="1">
          <mxGeometry x="730" y="-422" width="643" height="372" as="geometry" />
        </mxCell>
        <mxCell id="y8l9VE3VMVZeQ-2kAUSr-113" value="using _RaiiThread = calibration_base_module::ThreadRAII;" style="text;strokeColor=#82b366;fillColor=#d5e8d4;align=left;verticalAlign=top;spacingLeft=4;spacingRight=4;overflow=hidden;rotatable=0;points=[[0,0.5],[1,0.5]];portConstraint=eastwest;labelBorderColor=none;" parent="y8l9VE3VMVZeQ-2kAUSr-108" vertex="1">
          <mxGeometry y="26" width="643" height="26" as="geometry" />
        </mxCell>
        <mxCell id="y8l9VE3VMVZeQ-2kAUSr-121" value="    using _RaiiThreadUPtr = std::unique_ptr&lt;calibration_base_module::ThreadRAII&gt;;&#xa;" style="text;strokeColor=#82b366;fillColor=#d5e8d4;align=left;verticalAlign=top;spacingLeft=4;spacingRight=4;overflow=hidden;rotatable=0;points=[[0,0.5],[1,0.5]];portConstraint=eastwest;labelBorderColor=none;" parent="y8l9VE3VMVZeQ-2kAUSr-108" vertex="1">
          <mxGeometry y="52" width="643" height="26" as="geometry" />
        </mxCell>
        <mxCell id="y8l9VE3VMVZeQ-2kAUSr-122" value="    using _EventParameter = std::shared_ptr&lt;CommandInterface&gt;;&#xa;" style="text;strokeColor=#82b366;fillColor=#d5e8d4;align=left;verticalAlign=top;spacingLeft=4;spacingRight=4;overflow=hidden;rotatable=0;points=[[0,0.5],[1,0.5]];portConstraint=eastwest;labelBorderColor=none;" parent="y8l9VE3VMVZeQ-2kAUSr-108" vertex="1">
          <mxGeometry y="78" width="643" height="26" as="geometry" />
        </mxCell>
        <mxCell id="y8l9VE3VMVZeQ-2kAUSr-120" value="- is_init_: atomic_bool" style="text;strokeColor=#82b366;fillColor=#d5e8d4;align=left;verticalAlign=top;spacingLeft=4;spacingRight=4;overflow=hidden;rotatable=0;points=[[0,0.5],[1,0.5]];portConstraint=eastwest;labelBorderColor=none;" parent="y8l9VE3VMVZeQ-2kAUSr-108" vertex="1">
          <mxGeometry y="104" width="643" height="26" as="geometry" />
        </mxCell>
        <mxCell id="y8l9VE3VMVZeQ-2kAUSr-126" value="- event_list_: std::deque&lt;EventWrapper&gt;" style="text;strokeColor=#82b366;fillColor=#d5e8d4;align=left;verticalAlign=top;spacingLeft=4;spacingRight=4;overflow=hidden;rotatable=0;points=[[0,0.5],[1,0.5]];portConstraint=eastwest;labelBorderColor=none;" parent="y8l9VE3VMVZeQ-2kAUSr-108" vertex="1">
          <mxGeometry y="130" width="643" height="26" as="geometry" />
        </mxCell>
        <mxCell id="y8l9VE3VMVZeQ-2kAUSr-114" value="EventWrapper" style="swimlane;fontStyle=1;align=center;verticalAlign=top;childLayout=stackLayout;horizontal=1;startSize=26;horizontalStack=0;resizeParent=1;resizeParentMax=0;resizeLast=0;collapsible=1;marginBottom=0;fillColor=#dae8fc;strokeColor=#6c8ebf;" parent="y8l9VE3VMVZeQ-2kAUSr-108" vertex="1">
          <mxGeometry y="156" width="643" height="104" as="geometry" />
        </mxCell>
        <mxCell id="y8l9VE3VMVZeQ-2kAUSr-115" value="- event: _EventParameter" style="text;strokeColor=#82b366;fillColor=#d5e8d4;align=left;verticalAlign=top;spacingLeft=4;spacingRight=4;overflow=hidden;rotatable=0;points=[[0,0.5],[1,0.5]];portConstraint=eastwest;labelBorderColor=none;" parent="y8l9VE3VMVZeQ-2kAUSr-114" vertex="1">
          <mxGeometry y="26" width="643" height="26" as="geometry" />
        </mxCell>
        <mxCell id="y8l9VE3VMVZeQ-2kAUSr-123" value="- event_done_back: _EventDoneBack" style="text;strokeColor=#82b366;fillColor=#d5e8d4;align=left;verticalAlign=top;spacingLeft=4;spacingRight=4;overflow=hidden;rotatable=0;points=[[0,0.5],[1,0.5]];portConstraint=eastwest;labelBorderColor=none;" parent="y8l9VE3VMVZeQ-2kAUSr-114" vertex="1">
          <mxGeometry y="52" width="643" height="26" as="geometry" />
        </mxCell>
        <mxCell id="y8l9VE3VMVZeQ-2kAUSr-124" value="- event_time_out_ms: size_t" style="text;strokeColor=#82b366;fillColor=#d5e8d4;align=left;verticalAlign=top;spacingLeft=4;spacingRight=4;overflow=hidden;rotatable=0;points=[[0,0.5],[1,0.5]];portConstraint=eastwest;labelBorderColor=none;" parent="y8l9VE3VMVZeQ-2kAUSr-114" vertex="1">
          <mxGeometry y="78" width="643" height="26" as="geometry" />
        </mxCell>
        <mxCell id="y8l9VE3VMVZeQ-2kAUSr-111" value="+ GetCurrentEvent(event:_EventParameter): ErrorCode" style="text;strokeColor=#d79b00;fillColor=#ffe6cc;align=left;verticalAlign=top;spacingLeft=4;spacingRight=4;overflow=hidden;rotatable=0;points=[[0,0.5],[1,0.5]];portConstraint=eastwest;" parent="y8l9VE3VMVZeQ-2kAUSr-108" vertex="1">
          <mxGeometry y="260" width="643" height="26" as="geometry" />
        </mxCell>
        <mxCell id="y8l9VE3VMVZeQ-2kAUSr-109" value="" style="line;strokeWidth=1;fillColor=none;align=left;verticalAlign=middle;spacingTop=-1;spacingLeft=3;spacingRight=3;rotatable=0;labelPosition=right;points=[];portConstraint=eastwest;" parent="y8l9VE3VMVZeQ-2kAUSr-108" vertex="1">
          <mxGeometry y="286" width="643" height="8" as="geometry" />
        </mxCell>
        <mxCell id="y8l9VE3VMVZeQ-2kAUSr-110" value="+ AddEventBack(event：_EventParameter,event_done_back: _EventDoneBack, event_time_out_ms：size_t): bool" style="text;strokeColor=#d79b00;fillColor=#ffe6cc;align=left;verticalAlign=top;spacingLeft=4;spacingRight=4;overflow=hidden;rotatable=0;points=[[0,0.5],[1,0.5]];portConstraint=eastwest;labelBorderColor=none;" parent="y8l9VE3VMVZeQ-2kAUSr-108" vertex="1">
          <mxGeometry y="294" width="643" height="26" as="geometry" />
        </mxCell>
        <mxCell id="y8l9VE3VMVZeQ-2kAUSr-112" value="+ Start(): ErrorCode" style="text;strokeColor=#d79b00;fillColor=#ffe6cc;align=left;verticalAlign=top;spacingLeft=4;spacingRight=4;overflow=hidden;rotatable=0;points=[[0,0.5],[1,0.5]];portConstraint=eastwest;" parent="y8l9VE3VMVZeQ-2kAUSr-108" vertex="1">
          <mxGeometry y="320" width="643" height="26" as="geometry" />
        </mxCell>
        <mxCell id="y8l9VE3VMVZeQ-2kAUSr-125" value="+ Stop(): ErrorCode" style="text;strokeColor=#d79b00;fillColor=#ffe6cc;align=left;verticalAlign=top;spacingLeft=4;spacingRight=4;overflow=hidden;rotatable=0;points=[[0,0.5],[1,0.5]];portConstraint=eastwest;" parent="y8l9VE3VMVZeQ-2kAUSr-108" vertex="1">
          <mxGeometry y="346" width="643" height="26" as="geometry" />
        </mxCell>
        <mxCell id="y8l9VE3VMVZeQ-2kAUSr-127" value="" style="endArrow=diamondThin;endFill=0;endSize=24;html=1;rounded=0;" parent="1" source="y8l9VE3VMVZeQ-2kAUSr-74" target="y8l9VE3VMVZeQ-2kAUSr-108" edge="1">
          <mxGeometry width="160" relative="1" as="geometry">
            <mxPoint x="690" y="-322" as="sourcePoint" />
            <mxPoint x="850" y="-322" as="targetPoint" />
          </mxGeometry>
        </mxCell>
        <mxCell id="y8l9VE3VMVZeQ-2kAUSr-128" value="CFConfigManager" style="swimlane;fontStyle=1;align=center;verticalAlign=top;childLayout=stackLayout;horizontal=1;startSize=26;horizontalStack=0;resizeParent=1;resizeParentMax=0;resizeLast=0;collapsible=1;marginBottom=0;fillColor=#dae8fc;strokeColor=#6c8ebf;" parent="1" vertex="1">
          <mxGeometry x="-890" y="-762" width="320" height="34" as="geometry" />
        </mxCell>
        <mxCell id="y8l9VE3VMVZeQ-2kAUSr-133" value="" style="line;strokeWidth=1;fillColor=none;align=left;verticalAlign=middle;spacingTop=-1;spacingLeft=3;spacingRight=3;rotatable=0;labelPosition=right;points=[];portConstraint=eastwest;" parent="y8l9VE3VMVZeQ-2kAUSr-128" vertex="1">
          <mxGeometry y="26" width="320" height="8" as="geometry" />
        </mxCell>
        <mxCell id="y8l9VE3VMVZeQ-2kAUSr-143" value="Common" style="rounded=1;whiteSpace=wrap;html=1;fontSize=31;" parent="1" vertex="1">
          <mxGeometry x="2060" y="-770" width="280" height="424" as="geometry" />
        </mxCell>
        <mxCell id="y8l9VE3VMVZeQ-2kAUSr-145" value="A02" style="rounded=1;whiteSpace=wrap;html=1;fontSize=31;" parent="1" vertex="1">
          <mxGeometry x="2060" y="250" width="280" height="424" as="geometry" />
        </mxCell>
        <mxCell id="y8l9VE3VMVZeQ-2kAUSr-146" value="CmManager" style="swimlane;fontStyle=1;align=center;verticalAlign=top;childLayout=stackLayout;horizontal=1;startSize=26;horizontalStack=0;resizeParent=1;resizeParentMax=0;resizeLast=0;collapsible=1;marginBottom=0;fillColor=#dae8fc;strokeColor=#6c8ebf;" parent="1" vertex="1">
          <mxGeometry x="-10" y="310" width="550" height="34" as="geometry" />
        </mxCell>
        <mxCell id="y8l9VE3VMVZeQ-2kAUSr-153" value="" style="line;strokeWidth=1;fillColor=none;align=left;verticalAlign=middle;spacingTop=-1;spacingLeft=3;spacingRight=3;rotatable=0;labelPosition=right;points=[];portConstraint=eastwest;" parent="y8l9VE3VMVZeQ-2kAUSr-146" vertex="1">
          <mxGeometry y="26" width="550" height="8" as="geometry" />
        </mxCell>
        <mxCell id="y8l9VE3VMVZeQ-2kAUSr-156" value="" style="endArrow=block;dashed=1;endFill=0;endSize=12;html=1;" parent="1" source="y8l9VE3VMVZeQ-2kAUSr-146" target="y8l9VE3VMVZeQ-2kAUSr-33" edge="1">
          <mxGeometry width="160" relative="1" as="geometry">
            <mxPoint x="-319.6869244935542" y="490" as="sourcePoint" />
            <mxPoint x="-303.1860036832413" y="-406" as="targetPoint" />
          </mxGeometry>
        </mxCell>
        <mxCell id="y8l9VE3VMVZeQ-2kAUSr-157" value="DeDistortionCommand" style="swimlane;fontStyle=1;align=center;verticalAlign=top;childLayout=stackLayout;horizontal=1;startSize=26;horizontalStack=0;resizeParent=1;resizeParentMax=0;resizeLast=0;collapsible=1;marginBottom=0;fillColor=#dae8fc;strokeColor=#6c8ebf;" parent="1" vertex="1">
          <mxGeometry x="980" y="330" width="260" height="34" as="geometry" />
        </mxCell>
        <mxCell id="y8l9VE3VMVZeQ-2kAUSr-158" value="" style="line;strokeWidth=1;fillColor=none;align=left;verticalAlign=middle;spacingTop=-1;spacingLeft=3;spacingRight=3;rotatable=0;labelPosition=right;points=[];portConstraint=eastwest;" parent="y8l9VE3VMVZeQ-2kAUSr-157" vertex="1">
          <mxGeometry y="26" width="260" height="8" as="geometry" />
        </mxCell>
        <mxCell id="y8l9VE3VMVZeQ-2kAUSr-159" value="" style="endArrow=block;dashed=1;endFill=0;endSize=12;html=1;" parent="1" source="y8l9VE3VMVZeQ-2kAUSr-157" target="y8l9VE3VMVZeQ-2kAUSr-74" edge="1">
          <mxGeometry width="160" relative="1" as="geometry">
            <mxPoint x="1165.7194244604316" y="-534" as="sourcePoint" />
            <mxPoint x="1149.1007194244603" y="-600" as="targetPoint" />
          </mxGeometry>
        </mxCell>
        <mxCell id="y8l9VE3VMVZeQ-2kAUSr-160" value="FuncConfigManager" style="swimlane;fontStyle=1;align=center;verticalAlign=top;childLayout=stackLayout;horizontal=1;startSize=26;horizontalStack=0;resizeParent=1;resizeParentMax=0;resizeLast=0;collapsible=1;marginBottom=0;fillColor=#dae8fc;strokeColor=#6c8ebf;" parent="1" vertex="1">
          <mxGeometry x="-890" y="-644" width="320" height="34" as="geometry" />
        </mxCell>
        <mxCell id="y8l9VE3VMVZeQ-2kAUSr-161" value="" style="line;strokeWidth=1;fillColor=none;align=left;verticalAlign=middle;spacingTop=-1;spacingLeft=3;spacingRight=3;rotatable=0;labelPosition=right;points=[];portConstraint=eastwest;" parent="y8l9VE3VMVZeQ-2kAUSr-160" vertex="1">
          <mxGeometry y="26" width="320" height="8" as="geometry" />
        </mxCell>
        <mxCell id="ynZnu60gWF2p6DISsShN-1" value="ModuleConfigManager" style="swimlane;fontStyle=1;align=center;verticalAlign=top;childLayout=stackLayout;horizontal=1;startSize=26;horizontalStack=0;resizeParent=1;resizeParentMax=0;resizeLast=0;collapsible=1;marginBottom=0;fillColor=#dae8fc;strokeColor=#6c8ebf;" parent="1" vertex="1">
          <mxGeometry x="-890" y="-544" width="320" height="34" as="geometry" />
        </mxCell>
        <mxCell id="ynZnu60gWF2p6DISsShN-2" value="" style="line;strokeWidth=1;fillColor=none;align=left;verticalAlign=middle;spacingTop=-1;spacingLeft=3;spacingRight=3;rotatable=0;labelPosition=right;points=[];portConstraint=eastwest;" parent="ynZnu60gWF2p6DISsShN-1" vertex="1">
          <mxGeometry y="26" width="320" height="8" as="geometry" />
        </mxCell>
        <mxCell id="ynZnu60gWF2p6DISsShN-3" value="RoutineManagerApp" style="swimlane;fontStyle=1;align=center;verticalAlign=top;childLayout=stackLayout;horizontal=1;startSize=26;horizontalStack=0;resizeParent=1;resizeParentMax=0;resizeLast=0;collapsible=1;marginBottom=0;fillColor=#dae8fc;strokeColor=#6c8ebf;" parent="1" vertex="1">
          <mxGeometry x="-470" y="-762" width="320" height="164" as="geometry" />
        </mxCell>
        <mxCell id="ynZnu60gWF2p6DISsShN-5" value="- app_list_: unordered_map&lt;std::string, std::shared_ptr&lt;RoutineBase&gt;&gt;" style="text;strokeColor=#82b366;fillColor=#d5e8d4;align=left;verticalAlign=top;spacingLeft=4;spacingRight=4;overflow=hidden;rotatable=0;points=[[0,0.5],[1,0.5]];portConstraint=eastwest;labelBorderColor=none;" parent="ynZnu60gWF2p6DISsShN-3" vertex="1">
          <mxGeometry y="26" width="320" height="26" as="geometry" />
        </mxCell>
        <mxCell id="ynZnu60gWF2p6DISsShN-7" value="- is_stop_: atomic_bool" style="text;strokeColor=#82b366;fillColor=#d5e8d4;align=left;verticalAlign=top;spacingLeft=4;spacingRight=4;overflow=hidden;rotatable=0;points=[[0,0.5],[1,0.5]];portConstraint=eastwest;labelBorderColor=none;" parent="ynZnu60gWF2p6DISsShN-3" vertex="1">
          <mxGeometry y="52" width="320" height="26" as="geometry" />
        </mxCell>
        <mxCell id="ynZnu60gWF2p6DISsShN-4" value="" style="line;strokeWidth=1;fillColor=none;align=left;verticalAlign=middle;spacingTop=-1;spacingLeft=3;spacingRight=3;rotatable=0;labelPosition=right;points=[];portConstraint=eastwest;" parent="ynZnu60gWF2p6DISsShN-3" vertex="1">
          <mxGeometry y="78" width="320" height="8" as="geometry" />
        </mxCell>
        <mxCell id="ynZnu60gWF2p6DISsShN-6" value="+ AddRoutine(routine:shared_ptr&lt;RoutineBase&gt;): ErrorCode " style="text;strokeColor=#d79b00;fillColor=#ffe6cc;align=left;verticalAlign=top;spacingLeft=4;spacingRight=4;overflow=hidden;rotatable=0;points=[[0,0.5],[1,0.5]];portConstraint=eastwest;labelBorderColor=none;" parent="ynZnu60gWF2p6DISsShN-3" vertex="1">
          <mxGeometry y="86" width="320" height="26" as="geometry" />
        </mxCell>
        <mxCell id="ynZnu60gWF2p6DISsShN-8" value="+ Start(): ErrorCode " style="text;strokeColor=#d79b00;fillColor=#ffe6cc;align=left;verticalAlign=top;spacingLeft=4;spacingRight=4;overflow=hidden;rotatable=0;points=[[0,0.5],[1,0.5]];portConstraint=eastwest;labelBorderColor=none;" parent="ynZnu60gWF2p6DISsShN-3" vertex="1">
          <mxGeometry y="112" width="320" height="26" as="geometry" />
        </mxCell>
        <mxCell id="ynZnu60gWF2p6DISsShN-9" value="+ Stop(): void " style="text;strokeColor=#d79b00;fillColor=#ffe6cc;align=left;verticalAlign=top;spacingLeft=4;spacingRight=4;overflow=hidden;rotatable=0;points=[[0,0.5],[1,0.5]];portConstraint=eastwest;labelBorderColor=none;" parent="ynZnu60gWF2p6DISsShN-3" vertex="1">
          <mxGeometry y="138" width="320" height="26" as="geometry" />
        </mxCell>
        <mxCell id="ynZnu60gWF2p6DISsShN-10" value="1" style="endArrow=open;html=1;endSize=12;startArrow=diamondThin;startSize=14;startFill=1;edgeStyle=orthogonalEdgeStyle;align=left;verticalAlign=bottom;rounded=0;" parent="1" source="ynZnu60gWF2p6DISsShN-3" target="y8l9VE3VMVZeQ-2kAUSr-2" edge="1">
          <mxGeometry x="-1" y="3" relative="1" as="geometry">
            <mxPoint x="-400" y="-527.24" as="sourcePoint" />
            <mxPoint x="-240" y="-527.24" as="targetPoint" />
            <Array as="points">
              <mxPoint x="-310" y="-460" />
              <mxPoint x="-310" y="-460" />
            </Array>
          </mxGeometry>
        </mxCell>
        <mxCell id="ynZnu60gWF2p6DISsShN-12" value="*" style="text;html=1;strokeColor=none;fillColor=none;align=center;verticalAlign=middle;whiteSpace=wrap;rounded=0;" parent="1" vertex="1">
          <mxGeometry x="-330" y="-440" width="60" height="30" as="geometry" />
        </mxCell>
        <mxCell id="ynZnu60gWF2p6DISsShN-13" value="*" style="text;html=1;strokeColor=none;fillColor=none;align=center;verticalAlign=middle;whiteSpace=wrap;rounded=0;" parent="1" vertex="1">
          <mxGeometry x="-310" y="-533" width="20" height="12" as="geometry" />
        </mxCell>
        <mxCell id="iJkhMo64-NrMxBsNNjkt-1" value="和项目相关的配置：&lt;br&gt;is_terminal&lt;br&gt;camera size等" style="text;html=1;align=center;verticalAlign=middle;resizable=0;points=[];autosize=1;strokeColor=none;fillColor=none;" vertex="1" parent="1">
          <mxGeometry x="-1125" y="-570" width="130" height="60" as="geometry" />
        </mxCell>
        <mxCell id="iJkhMo64-NrMxBsNNjkt-2" value="和功能相关配置:&lt;br&gt;1. 去畸变表&lt;br&gt;2. SDK的operator&lt;br&gt;3. 售后在线等" style="text;html=1;align=left;verticalAlign=middle;resizable=0;points=[];autosize=1;strokeColor=none;fillColor=none;" vertex="1" parent="1">
          <mxGeometry x="-1115" y="-662" width="120" height="70" as="geometry" />
        </mxCell>
        <mxCell id="iJkhMo64-NrMxBsNNjkt-3" value="车参文件的一些操作" style="text;html=1;align=left;verticalAlign=middle;resizable=0;points=[];autosize=1;strokeColor=none;fillColor=none;" vertex="1" parent="1">
          <mxGeometry x="-1115" y="-760" width="130" height="30" as="geometry" />
        </mxCell>
        <mxCell id="iJkhMo64-NrMxBsNNjkt-6" value="TinyRcordReadManager" style="swimlane;fontStyle=1;align=center;verticalAlign=top;childLayout=stackLayout;horizontal=1;startSize=26;horizontalStack=0;resizeParent=1;resizeParentMax=0;resizeLast=0;collapsible=1;marginBottom=0;fillColor=#dae8fc;strokeColor=#6c8ebf;" vertex="1" parent="1">
          <mxGeometry x="-620" y="-1520" width="390" height="164" as="geometry" />
        </mxCell>
        <mxCell id="iJkhMo64-NrMxBsNNjkt-7" value="- record_reader_ptr_: std::unique_ptr&lt;RecordReader&gt;" style="text;strokeColor=#82b366;fillColor=#d5e8d4;align=left;verticalAlign=top;spacingLeft=4;spacingRight=4;overflow=hidden;rotatable=0;points=[[0,0.5],[1,0.5]];portConstraint=eastwest;labelBorderColor=none;" vertex="1" parent="iJkhMo64-NrMxBsNNjkt-6">
          <mxGeometry y="26" width="390" height="26" as="geometry" />
        </mxCell>
        <mxCell id="iJkhMo64-NrMxBsNNjkt-8" value="- callback_map_: std::unordered_map&lt;std::string, std::unique_ptr&lt;SubscriptionCallbackHelper&gt;&gt;" style="text;strokeColor=#82b366;fillColor=#d5e8d4;align=left;verticalAlign=top;spacingLeft=4;spacingRight=4;overflow=hidden;rotatable=0;points=[[0,0.5],[1,0.5]];portConstraint=eastwest;labelBorderColor=none;" vertex="1" parent="iJkhMo64-NrMxBsNNjkt-6">
          <mxGeometry y="52" width="390" height="26" as="geometry" />
        </mxCell>
        <mxCell id="iJkhMo64-NrMxBsNNjkt-9" value="" style="line;strokeWidth=1;fillColor=none;align=left;verticalAlign=middle;spacingTop=-1;spacingLeft=3;spacingRight=3;rotatable=0;labelPosition=right;points=[];portConstraint=eastwest;" vertex="1" parent="iJkhMo64-NrMxBsNNjkt-6">
          <mxGeometry y="78" width="390" height="8" as="geometry" />
        </mxCell>
        <mxCell id="iJkhMo64-NrMxBsNNjkt-10" value="+ Init(identify:string, record_config:RecordReadConfig): ErrorCode " style="text;strokeColor=#d79b00;fillColor=#ffe6cc;align=left;verticalAlign=top;spacingLeft=4;spacingRight=4;overflow=hidden;rotatable=0;points=[[0,0.5],[1,0.5]];portConstraint=eastwest;labelBorderColor=none;" vertex="1" parent="iJkhMo64-NrMxBsNNjkt-6">
          <mxGeometry y="86" width="390" height="26" as="geometry" />
        </mxCell>
        <mxCell id="iJkhMo64-NrMxBsNNjkt-11" value="+ Start(): ErrorCode " style="text;strokeColor=#d79b00;fillColor=#ffe6cc;align=left;verticalAlign=top;spacingLeft=4;spacingRight=4;overflow=hidden;rotatable=0;points=[[0,0.5],[1,0.5]];portConstraint=eastwest;labelBorderColor=none;" vertex="1" parent="iJkhMo64-NrMxBsNNjkt-6">
          <mxGeometry y="112" width="390" height="26" as="geometry" />
        </mxCell>
        <mxCell id="iJkhMo64-NrMxBsNNjkt-12" value="+ RegisterTopicCallback(topic:string, callback:std::shared_ptr&lt;_DataType&gt; &amp;)&gt;): void " style="text;strokeColor=#d79b00;fillColor=#ffe6cc;align=left;verticalAlign=top;spacingLeft=4;spacingRight=4;overflow=hidden;rotatable=0;points=[[0,0.5],[1,0.5]];portConstraint=eastwest;labelBorderColor=none;" vertex="1" parent="iJkhMo64-NrMxBsNNjkt-6">
          <mxGeometry y="138" width="390" height="26" as="geometry" />
        </mxCell>
        <mxCell id="iJkhMo64-NrMxBsNNjkt-13" value="TinyRcordWriteManager" style="swimlane;fontStyle=1;align=center;verticalAlign=top;childLayout=stackLayout;horizontal=1;startSize=26;horizontalStack=0;resizeParent=1;resizeParentMax=0;resizeLast=0;collapsible=1;marginBottom=0;fillColor=#dae8fc;strokeColor=#6c8ebf;" vertex="1" parent="1">
          <mxGeometry x="-200" y="-1520" width="390" height="138" as="geometry" />
        </mxCell>
        <mxCell id="iJkhMo64-NrMxBsNNjkt-14" value="- block_queue_ptr_: std::unique_ptr&lt;moodycamel::BlockingConcurrentQueue&lt;RecordParameter&gt;&gt;" style="text;strokeColor=#82b366;fillColor=#d5e8d4;align=left;verticalAlign=top;spacingLeft=4;spacingRight=4;overflow=hidden;rotatable=0;points=[[0,0.5],[1,0.5]];portConstraint=eastwest;labelBorderColor=none;" vertex="1" parent="iJkhMo64-NrMxBsNNjkt-13">
          <mxGeometry y="26" width="390" height="26" as="geometry" />
        </mxCell>
        <mxCell id="iJkhMo64-NrMxBsNNjkt-15" value="- writer_: RecordWriter" style="text;strokeColor=#82b366;fillColor=#d5e8d4;align=left;verticalAlign=top;spacingLeft=4;spacingRight=4;overflow=hidden;rotatable=0;points=[[0,0.5],[1,0.5]];portConstraint=eastwest;labelBorderColor=none;" vertex="1" parent="iJkhMo64-NrMxBsNNjkt-13">
          <mxGeometry y="52" width="390" height="26" as="geometry" />
        </mxCell>
        <mxCell id="iJkhMo64-NrMxBsNNjkt-16" value="" style="line;strokeWidth=1;fillColor=none;align=left;verticalAlign=middle;spacingTop=-1;spacingLeft=3;spacingRight=3;rotatable=0;labelPosition=right;points=[];portConstraint=eastwest;" vertex="1" parent="iJkhMo64-NrMxBsNNjkt-13">
          <mxGeometry y="78" width="390" height="8" as="geometry" />
        </mxCell>
        <mxCell id="iJkhMo64-NrMxBsNNjkt-17" value="+ Init(identify:string, record_config:RecordWriteConfig): ErrorCode " style="text;strokeColor=#d79b00;fillColor=#ffe6cc;align=left;verticalAlign=top;spacingLeft=4;spacingRight=4;overflow=hidden;rotatable=0;points=[[0,0.5],[1,0.5]];portConstraint=eastwest;labelBorderColor=none;" vertex="1" parent="iJkhMo64-NrMxBsNNjkt-13">
          <mxGeometry y="86" width="390" height="26" as="geometry" />
        </mxCell>
        <mxCell id="iJkhMo64-NrMxBsNNjkt-18" value="+ WriteData(topic_name：string,data:std::shared_ptr&lt;_DataType&gt;, timestamp_ns：size_t): ErrorCode " style="text;strokeColor=#d79b00;fillColor=#ffe6cc;align=left;verticalAlign=top;spacingLeft=4;spacingRight=4;overflow=hidden;rotatable=0;points=[[0,0.5],[1,0.5]];portConstraint=eastwest;labelBorderColor=none;" vertex="1" parent="iJkhMo64-NrMxBsNNjkt-13">
          <mxGeometry y="112" width="390" height="26" as="geometry" />
        </mxCell>
        <mxCell id="iJkhMo64-NrMxBsNNjkt-20" value="CameraDecodeBase" style="swimlane;fontStyle=1;align=center;verticalAlign=top;childLayout=stackLayout;horizontal=1;startSize=26;horizontalStack=0;resizeParent=1;resizeParentMax=0;resizeLast=0;collapsible=1;marginBottom=0;fillColor=#dae8fc;strokeColor=#6c8ebf;" vertex="1" parent="1">
          <mxGeometry x="-370" y="-1340" width="390" height="164" as="geometry" />
        </mxCell>
        <mxCell id="iJkhMo64-NrMxBsNNjkt-21" value="- block_queue_ptr_: std::unique_ptr&lt;moodycamel::BlockingConcurrentQueue&lt;RecordParameter&gt;&gt;" style="text;strokeColor=#82b366;fillColor=#d5e8d4;align=left;verticalAlign=top;spacingLeft=4;spacingRight=4;overflow=hidden;rotatable=0;points=[[0,0.5],[1,0.5]];portConstraint=eastwest;labelBorderColor=none;" vertex="1" parent="iJkhMo64-NrMxBsNNjkt-20">
          <mxGeometry y="26" width="390" height="26" as="geometry" />
        </mxCell>
        <mxCell id="iJkhMo64-NrMxBsNNjkt-22" value="- writer_: RecordWriter" style="text;strokeColor=#82b366;fillColor=#d5e8d4;align=left;verticalAlign=top;spacingLeft=4;spacingRight=4;overflow=hidden;rotatable=0;points=[[0,0.5],[1,0.5]];portConstraint=eastwest;labelBorderColor=none;" vertex="1" parent="iJkhMo64-NrMxBsNNjkt-20">
          <mxGeometry y="52" width="390" height="26" as="geometry" />
        </mxCell>
        <mxCell id="iJkhMo64-NrMxBsNNjkt-23" value="" style="line;strokeWidth=1;fillColor=none;align=left;verticalAlign=middle;spacingTop=-1;spacingLeft=3;spacingRight=3;rotatable=0;labelPosition=right;points=[];portConstraint=eastwest;" vertex="1" parent="iJkhMo64-NrMxBsNNjkt-20">
          <mxGeometry y="78" width="390" height="8" as="geometry" />
        </mxCell>
        <mxCell id="iJkhMo64-NrMxBsNNjkt-24" value="+ Init(identify:string, decode_config:DecodeConfig): ErrorCode " style="text;strokeColor=#d79b00;fillColor=#ffe6cc;align=left;verticalAlign=top;spacingLeft=4;spacingRight=4;overflow=hidden;rotatable=0;points=[[0,0.5],[1,0.5]];portConstraint=eastwest;labelBorderColor=none;" vertex="1" parent="iJkhMo64-NrMxBsNNjkt-20">
          <mxGeometry y="86" width="390" height="26" as="geometry" />
        </mxCell>
        <mxCell id="iJkhMo64-NrMxBsNNjkt-26" value="+ SendDataStream(vStream:VencStream): ErrorCode " style="text;strokeColor=#d79b00;fillColor=#ffe6cc;align=left;verticalAlign=top;spacingLeft=4;spacingRight=4;overflow=hidden;rotatable=0;points=[[0,0.5],[1,0.5]];portConstraint=eastwest;labelBorderColor=none;" vertex="1" parent="iJkhMo64-NrMxBsNNjkt-20">
          <mxGeometry y="112" width="390" height="26" as="geometry" />
        </mxCell>
        <mxCell id="iJkhMo64-NrMxBsNNjkt-27" value="+ GetDataFrame(vFrame:VdecFrame): ErrorCode " style="text;strokeColor=#d79b00;fillColor=#ffe6cc;align=left;verticalAlign=top;spacingLeft=4;spacingRight=4;overflow=hidden;rotatable=0;points=[[0,0.5],[1,0.5]];portConstraint=eastwest;labelBorderColor=none;" vertex="1" parent="iJkhMo64-NrMxBsNNjkt-20">
          <mxGeometry y="138" width="390" height="26" as="geometry" />
        </mxCell>
        <mxCell id="iJkhMo64-NrMxBsNNjkt-28" value="serialize" style="rounded=1;whiteSpace=wrap;html=1;fontSize=23;" vertex="1" parent="1">
          <mxGeometry x="390" y="-1525" width="130" height="70" as="geometry" />
        </mxCell>
        <mxCell id="iJkhMo64-NrMxBsNNjkt-29" value="thread" style="rounded=1;whiteSpace=wrap;html=1;fontSize=23;" vertex="1" parent="1">
          <mxGeometry x="250" y="-1520" width="120" height="60" as="geometry" />
        </mxCell>
        <mxCell id="iJkhMo64-NrMxBsNNjkt-30" value="queue" style="rounded=1;whiteSpace=wrap;html=1;fontSize=23;" vertex="1" parent="1">
          <mxGeometry x="395" y="-1420" width="120" height="60" as="geometry" />
        </mxCell>
        <mxCell id="iJkhMo64-NrMxBsNNjkt-31" value="trait" style="rounded=1;whiteSpace=wrap;html=1;fontSize=23;" vertex="1" parent="1">
          <mxGeometry x="320" y="-1320" width="120" height="60" as="geometry" />
        </mxCell>
        <mxCell id="iJkhMo64-NrMxBsNNjkt-32" value="file_system" style="rounded=1;whiteSpace=wrap;html=1;fontSize=23;" vertex="1" parent="1">
          <mxGeometry x="250" y="-1430" width="120" height="60" as="geometry" />
        </mxCell>
        <mxCell id="iJkhMo64-NrMxBsNNjkt-33" value="MainMachineBase" style="swimlane;fontStyle=1;align=center;verticalAlign=top;childLayout=stackLayout;horizontal=1;startSize=26;horizontalStack=0;resizeParent=1;resizeParentMax=0;resizeLast=0;collapsible=1;marginBottom=0;fillColor=#dae8fc;strokeColor=#6c8ebf;" vertex="1" parent="1">
          <mxGeometry x="-900" y="-420" width="340" height="112" as="geometry" />
        </mxCell>
        <mxCell id="iJkhMo64-NrMxBsNNjkt-40" value="" style="line;strokeWidth=1;fillColor=none;align=left;verticalAlign=middle;spacingTop=-1;spacingLeft=3;spacingRight=3;rotatable=0;labelPosition=right;points=[];portConstraint=eastwest;" vertex="1" parent="iJkhMo64-NrMxBsNNjkt-33">
          <mxGeometry y="26" width="340" height="8" as="geometry" />
        </mxCell>
        <mxCell id="iJkhMo64-NrMxBsNNjkt-41" value="+ Init(config_param:config_param): ErrorCode = 0" style="text;strokeColor=#d79b00;fillColor=#ffe6cc;align=left;verticalAlign=top;spacingLeft=4;spacingRight=4;overflow=hidden;rotatable=0;points=[[0,0.5],[1,0.5]];portConstraint=eastwest;labelBorderColor=none;" vertex="1" parent="iJkhMo64-NrMxBsNNjkt-33">
          <mxGeometry y="34" width="340" height="26" as="geometry" />
        </mxCell>
        <mxCell id="iJkhMo64-NrMxBsNNjkt-43" value="+ Process(): ErrorCode = 0" style="text;strokeColor=#d79b00;fillColor=#ffe6cc;align=left;verticalAlign=top;spacingLeft=4;spacingRight=4;overflow=hidden;rotatable=0;points=[[0,0.5],[1,0.5]];portConstraint=eastwest;labelBorderColor=none;" vertex="1" parent="iJkhMo64-NrMxBsNNjkt-33">
          <mxGeometry y="60" width="340" height="26" as="geometry" />
        </mxCell>
        <mxCell id="iJkhMo64-NrMxBsNNjkt-42" value="+ Stop(): void = 0" style="text;strokeColor=#d79b00;fillColor=#ffe6cc;align=left;verticalAlign=top;spacingLeft=4;spacingRight=4;overflow=hidden;rotatable=0;points=[[0,0.5],[1,0.5]];portConstraint=eastwest;" vertex="1" parent="iJkhMo64-NrMxBsNNjkt-33">
          <mxGeometry y="86" width="340" height="26" as="geometry" />
        </mxCell>
        <mxCell id="iJkhMo64-NrMxBsNNjkt-44" value="MainMachine" style="swimlane;fontStyle=1;align=center;verticalAlign=top;childLayout=stackLayout;horizontal=1;startSize=26;horizontalStack=0;resizeParent=1;resizeParentMax=0;resizeLast=0;collapsible=1;marginBottom=0;fillColor=#dae8fc;strokeColor=#6c8ebf;" vertex="1" parent="1">
          <mxGeometry x="-1023" y="317" width="610" height="346" as="geometry" />
        </mxCell>
        <mxCell id="iJkhMo64-NrMxBsNNjkt-49" value="- function_control_ptr_: std::unique_ptr&lt;FunctionControl&gt;" style="text;strokeColor=#82b366;fillColor=#d5e8d4;align=left;verticalAlign=top;spacingLeft=4;spacingRight=4;overflow=hidden;rotatable=0;points=[[0,0.5],[1,0.5]];portConstraint=eastwest;labelBorderColor=none;" vertex="1" parent="iJkhMo64-NrMxBsNNjkt-44">
          <mxGeometry y="26" width="610" height="26" as="geometry" />
        </mxCell>
        <mxCell id="iJkhMo64-NrMxBsNNjkt-57" value="- cf_config_ptr_: std::shared_ptr&lt;CFConfigManager&gt;" style="text;strokeColor=#82b366;fillColor=#d5e8d4;align=left;verticalAlign=top;spacingLeft=4;spacingRight=4;overflow=hidden;rotatable=0;points=[[0,0.5],[1,0.5]];portConstraint=eastwest;labelBorderColor=none;" vertex="1" parent="iJkhMo64-NrMxBsNNjkt-44">
          <mxGeometry y="52" width="610" height="26" as="geometry" />
        </mxCell>
        <mxCell id="iJkhMo64-NrMxBsNNjkt-58" value="- func_config_ptr_: std::shared_ptr&lt;FuncConfigManager&gt;" style="text;strokeColor=#82b366;fillColor=#d5e8d4;align=left;verticalAlign=top;spacingLeft=4;spacingRight=4;overflow=hidden;rotatable=0;points=[[0,0.5],[1,0.5]];portConstraint=eastwest;labelBorderColor=none;" vertex="1" parent="iJkhMo64-NrMxBsNNjkt-44">
          <mxGeometry y="78" width="610" height="26" as="geometry" />
        </mxCell>
        <mxCell id="iJkhMo64-NrMxBsNNjkt-59" value="- module_config_ptr_: std::shared_ptr&lt;ModuleConfigManager&gt;" style="text;strokeColor=#82b366;fillColor=#d5e8d4;align=left;verticalAlign=top;spacingLeft=4;spacingRight=4;overflow=hidden;rotatable=0;points=[[0,0.5],[1,0.5]];portConstraint=eastwest;labelBorderColor=none;" vertex="1" parent="iJkhMo64-NrMxBsNNjkt-44">
          <mxGeometry y="104" width="610" height="26" as="geometry" />
        </mxCell>
        <mxCell id="iJkhMo64-NrMxBsNNjkt-60" value="- command_create_func_map_: std::unordered_map&lt;std::string, std::function&lt;std::shared_ptr&lt;CommandInterface&gt;(&#xa;                         const RoutineBase::OperationInput &amp;input)&gt;&gt;" style="text;strokeColor=#82b366;fillColor=#d5e8d4;align=left;verticalAlign=top;spacingLeft=4;spacingRight=4;overflow=hidden;rotatable=0;points=[[0,0.5],[1,0.5]];portConstraint=eastwest;labelBorderColor=none;" vertex="1" parent="iJkhMo64-NrMxBsNNjkt-44">
          <mxGeometry y="130" width="610" height="26" as="geometry" />
        </mxCell>
        <mxCell id="iJkhMo64-NrMxBsNNjkt-61" value="- routine_manager_ptr_: std::unique_ptr&lt;RoutineManagerApp&gt;" style="text;strokeColor=#82b366;fillColor=#d5e8d4;align=left;verticalAlign=top;spacingLeft=4;spacingRight=4;overflow=hidden;rotatable=0;points=[[0,0.5],[1,0.5]];portConstraint=eastwest;labelBorderColor=none;" vertex="1" parent="iJkhMo64-NrMxBsNNjkt-44">
          <mxGeometry y="156" width="610" height="26" as="geometry" />
        </mxCell>
        <mxCell id="iJkhMo64-NrMxBsNNjkt-62" value="- cm_manager_ptr_: std::shared_ptr&lt;CmManagerManager&gt;" style="text;strokeColor=#82b366;fillColor=#d5e8d4;align=left;verticalAlign=top;spacingLeft=4;spacingRight=4;overflow=hidden;rotatable=0;points=[[0,0.5],[1,0.5]];portConstraint=eastwest;labelBorderColor=none;" vertex="1" parent="iJkhMo64-NrMxBsNNjkt-44">
          <mxGeometry y="182" width="610" height="26" as="geometry" />
        </mxCell>
        <mxCell id="iJkhMo64-NrMxBsNNjkt-45" value="" style="line;strokeWidth=1;fillColor=none;align=left;verticalAlign=middle;spacingTop=-1;spacingLeft=3;spacingRight=3;rotatable=0;labelPosition=right;points=[];portConstraint=eastwest;" vertex="1" parent="iJkhMo64-NrMxBsNNjkt-44">
          <mxGeometry y="208" width="610" height="8" as="geometry" />
        </mxCell>
        <mxCell id="iJkhMo64-NrMxBsNNjkt-46" value="+ Init(config_param:config_param): ErrorCode " style="text;strokeColor=#d79b00;fillColor=#ffe6cc;align=left;verticalAlign=top;spacingLeft=4;spacingRight=4;overflow=hidden;rotatable=0;points=[[0,0.5],[1,0.5]];portConstraint=eastwest;labelBorderColor=none;" vertex="1" parent="iJkhMo64-NrMxBsNNjkt-44">
          <mxGeometry y="216" width="610" height="26" as="geometry" />
        </mxCell>
        <mxCell id="iJkhMo64-NrMxBsNNjkt-47" value="+ Process(): ErrorCode" style="text;strokeColor=#d79b00;fillColor=#ffe6cc;align=left;verticalAlign=top;spacingLeft=4;spacingRight=4;overflow=hidden;rotatable=0;points=[[0,0.5],[1,0.5]];portConstraint=eastwest;labelBorderColor=none;" vertex="1" parent="iJkhMo64-NrMxBsNNjkt-44">
          <mxGeometry y="242" width="610" height="26" as="geometry" />
        </mxCell>
        <mxCell id="iJkhMo64-NrMxBsNNjkt-48" value="+ Stop()" style="text;strokeColor=#d79b00;fillColor=#ffe6cc;align=left;verticalAlign=top;spacingLeft=4;spacingRight=4;overflow=hidden;rotatable=0;points=[[0,0.5],[1,0.5]];portConstraint=eastwest;" vertex="1" parent="iJkhMo64-NrMxBsNNjkt-44">
          <mxGeometry y="268" width="610" height="26" as="geometry" />
        </mxCell>
        <mxCell id="iJkhMo64-NrMxBsNNjkt-68" value="+ CreateDeDistortionRoutineCommand() ： std::shared_ptr&lt;CommandInterface&gt;" style="text;strokeColor=#d79b00;fillColor=#ffe6cc;align=left;verticalAlign=top;spacingLeft=4;spacingRight=4;overflow=hidden;rotatable=0;points=[[0,0.5],[1,0.5]];portConstraint=eastwest;" vertex="1" parent="iJkhMo64-NrMxBsNNjkt-44">
          <mxGeometry y="294" width="610" height="26" as="geometry" />
        </mxCell>
        <mxCell id="iJkhMo64-NrMxBsNNjkt-69" value="+ Create4sOnlineCommand() ： std::shared_ptr&lt;CommandInterface&gt;" style="text;strokeColor=#d79b00;fillColor=#ffe6cc;align=left;verticalAlign=top;spacingLeft=4;spacingRight=4;overflow=hidden;rotatable=0;points=[[0,0.5],[1,0.5]];portConstraint=eastwest;" vertex="1" parent="iJkhMo64-NrMxBsNNjkt-44">
          <mxGeometry y="320" width="610" height="26" as="geometry" />
        </mxCell>
        <mxCell id="iJkhMo64-NrMxBsNNjkt-51" value="1" style="endArrow=open;html=1;endSize=12;startArrow=diamondThin;startSize=14;startFill=1;edgeStyle=orthogonalEdgeStyle;align=left;verticalAlign=bottom;rounded=0;fontSize=23;" edge="1" parent="1" source="iJkhMo64-NrMxBsNNjkt-44" target="y8l9VE3VMVZeQ-2kAUSr-108">
          <mxGeometry x="-0.9721" y="-10" relative="1" as="geometry">
            <mxPoint x="-1270" y="640" as="sourcePoint" />
            <mxPoint x="-1090" y="840" as="targetPoint" />
            <Array as="points">
              <mxPoint x="-740" y="130" />
              <mxPoint x="1052" y="130" />
            </Array>
            <mxPoint as="offset" />
          </mxGeometry>
        </mxCell>
        <mxCell id="iJkhMo64-NrMxBsNNjkt-52" value="1" style="endArrow=open;html=1;endSize=12;startArrow=diamondThin;startSize=14;startFill=1;edgeStyle=orthogonalEdgeStyle;align=left;verticalAlign=bottom;rounded=0;fontSize=23;" edge="1" parent="1" source="iJkhMo64-NrMxBsNNjkt-44" target="y8l9VE3VMVZeQ-2kAUSr-128">
          <mxGeometry x="-1" y="3" relative="1" as="geometry">
            <mxPoint x="-1210" y="180" as="sourcePoint" />
            <mxPoint x="-1050" y="180" as="targetPoint" />
            <Array as="points">
              <mxPoint x="-1060" y="431" />
              <mxPoint x="-1060" y="-745" />
            </Array>
          </mxGeometry>
        </mxCell>
        <mxCell id="iJkhMo64-NrMxBsNNjkt-53" value="1" style="endArrow=open;html=1;endSize=12;startArrow=diamondThin;startSize=14;startFill=1;edgeStyle=orthogonalEdgeStyle;align=left;verticalAlign=bottom;rounded=0;fontSize=23;" edge="1" parent="1" source="iJkhMo64-NrMxBsNNjkt-44" target="y8l9VE3VMVZeQ-2kAUSr-160">
          <mxGeometry x="-1" relative="1" as="geometry">
            <mxPoint x="-900" y="388.99999999999955" as="sourcePoint" />
            <mxPoint x="-880" y="-735" as="targetPoint" />
            <Array as="points">
              <mxPoint x="-1060" y="431" />
              <mxPoint x="-1060" y="-627" />
            </Array>
            <mxPoint as="offset" />
          </mxGeometry>
        </mxCell>
        <mxCell id="iJkhMo64-NrMxBsNNjkt-54" value="1" style="endArrow=open;html=1;endSize=12;startArrow=diamondThin;startSize=14;startFill=1;edgeStyle=orthogonalEdgeStyle;align=left;verticalAlign=bottom;rounded=0;fontSize=23;" edge="1" parent="1" source="iJkhMo64-NrMxBsNNjkt-44" target="ynZnu60gWF2p6DISsShN-1">
          <mxGeometry x="-0.9842" y="10" relative="1" as="geometry">
            <mxPoint x="-900" y="398.99999999999955" as="sourcePoint" />
            <mxPoint x="-880" y="-617" as="targetPoint" />
            <Array as="points">
              <mxPoint x="-1060" y="431" />
              <mxPoint x="-1060" y="-527" />
            </Array>
            <mxPoint as="offset" />
          </mxGeometry>
        </mxCell>
        <mxCell id="iJkhMo64-NrMxBsNNjkt-55" value="" style="endArrow=block;dashed=1;endFill=0;endSize=12;html=1;" edge="1" parent="1" source="iJkhMo64-NrMxBsNNjkt-44" target="iJkhMo64-NrMxBsNNjkt-33">
          <mxGeometry width="160" relative="1" as="geometry">
            <mxPoint x="265.62271062271066" y="340" as="sourcePoint" />
            <mxPoint x="280.5677655677655" y="-68" as="targetPoint" />
          </mxGeometry>
        </mxCell>
        <mxCell id="iJkhMo64-NrMxBsNNjkt-56" value="主要的核心集成类" style="text;html=1;align=center;verticalAlign=middle;resizable=0;points=[];autosize=1;strokeColor=none;fillColor=none;fontSize=23;" vertex="1" parent="1">
          <mxGeometry x="-960" y="260" width="210" height="40" as="geometry" />
        </mxCell>
        <mxCell id="iJkhMo64-NrMxBsNNjkt-64" value="1" style="endArrow=open;html=1;endSize=12;startArrow=diamondThin;startSize=14;startFill=1;edgeStyle=orthogonalEdgeStyle;align=left;verticalAlign=bottom;rounded=0;fontSize=23;" edge="1" parent="1" source="iJkhMo64-NrMxBsNNjkt-44" target="ynZnu60gWF2p6DISsShN-3">
          <mxGeometry x="-0.9721" y="-10" relative="1" as="geometry">
            <mxPoint x="-729.9696969696968" y="327" as="sourcePoint" />
            <mxPoint x="1062.030303030303" y="-40" as="targetPoint" />
            <Array as="points">
              <mxPoint x="-740" y="130" />
              <mxPoint x="-80" y="130" />
              <mxPoint x="-80" y="-680" />
            </Array>
            <mxPoint as="offset" />
          </mxGeometry>
        </mxCell>
        <mxCell id="iJkhMo64-NrMxBsNNjkt-65" value="1" style="endArrow=open;html=1;endSize=12;startArrow=diamondThin;startSize=14;startFill=1;edgeStyle=orthogonalEdgeStyle;align=left;verticalAlign=bottom;rounded=0;fontSize=23;" edge="1" parent="1" source="iJkhMo64-NrMxBsNNjkt-44" target="y8l9VE3VMVZeQ-2kAUSr-33">
          <mxGeometry x="-0.9721" y="-10" relative="1" as="geometry">
            <mxPoint x="-729.9999999999995" y="327" as="sourcePoint" />
            <mxPoint x="-140" y="-669.9473684210525" as="targetPoint" />
            <Array as="points">
              <mxPoint x="-740" y="130" />
              <mxPoint x="70" y="130" />
            </Array>
            <mxPoint as="offset" />
          </mxGeometry>
        </mxCell>
      </root>
    </mxGraphModel>
  </diagram>
</mxfile>
